# xmcd
#
# Track frame offsets:
#  150
#  14955
#  35920
#  81690
#  98995
#  117785
#  134078
#  153963
#  175230
#  198360
#  214860
#  228718
#  251548
#  274100
#  295308
#
# Disc length: 4256 seconds
#
# Revision: 0
# Processed by: cddbd v1.4PL0 Copyright (c) Steve Scherf et al.
# Submitted via: AltoMP3_Maker 3.0
#
DISCID=ed109e0f
DTITLE=Jacques Higelin - Le meilleur de Jacques Higelin
DYEAR=1900
DGENRE=
TTITLE0=Mona Lisa klaxon
TTITLE1=Irradié
TTITLE2=Alertez les bébés
TTITLE3=Pars
TTITLE4=Ci-gît une star
TTITLE5=Beau beau ou laid
TTITLE6=Paris New York New York Paris
TTITLE7=Tombé du ciel
TTITLE8=Est-ce que ma guitare est un fusil?
TTITLE9=La rousse au chocoloat
TTITLE10=Denise
TTITLE11=L... comme beauté
TTITLE12=Encore une journée d'foutue
TTITLE13=Dans mon aéroplane blindé
TTITLE14=Parc Montsouris (à mon père)
EXTD=
EXTT0=
EXTT1=
EXTT2=
EXTT3=
EXTT4=
EXTT5=
EXTT6=
EXTT7=
EXTT8=
EXTT9=
EXTT10=
EXTT11=
EXTT12=
EXTT13=
EXTT14=
PLAYORDER=
